<svg id="Layer_1" data-name="Layer 1" xmlns="http://www.w3.org/2000/svg" viewBox="0 0 32 32"><title>apps</title><g stroke="#FF4F1F" fill="#FF4F1F"><path d="M12.57,16.29H4.72A3.72,3.72,0,0,1,1,12.57V4.72A3.72,3.72,0,0,1,4.72,1h7.85a3.72,3.72,0,0,1,3.71,3.71v7.85A3.72,3.72,0,0,1,12.57,16.29Zm-7.85-13A1.43,1.43,0,0,0,3.29,4.72v7.85A1.43,1.43,0,0,0,4.72,14h7.85A1.43,1.43,0,0,0,14,12.57V4.72a1.43,1.43,0,0,0-1.43-1.43Z"/><path d="M24.86,16.29H20.93a2.43,2.43,0,0,1-2.43-2.43V9.93a2.43,2.43,0,0,1,2.43-2.43h3.93a2.43,2.43,0,0,1,2.43,2.43v3.93A2.43,2.43,0,0,1,24.86,16.29Z"/><path d="M13.5,29.08h-5A2.78,2.78,0,0,1,5.71,26.3v-5a2.78,2.78,0,0,1,2.78-2.78h5a2.78,2.78,0,0,1,2.78,2.78v5A2.78,2.78,0,0,1,13.5,29.08Z"/><path d="M27.83,31H21.67a3.16,3.16,0,0,1-3.16-3.16V21.67a3.16,3.16,0,0,1,3.16-3.16h6.17A3.16,3.16,0,0,1,31,21.67v6.17A3.16,3.16,0,0,1,27.83,31Z"/></g></svg>
